<?xml version="1.0" encoding="utf-8"?>
<!-- Svg Vector Icons : http://www.onlinewebfonts.com/icon -->
<!DOCTYPE svg PUBLIC "-//W3C//DTD SVG 1.1//EN" "http://www.w3.org/Graphics/SVG/1.1/DTD/svg11.dtd">
<svg version="1.1" xmlns="http://www.w3.org/2000/svg" xmlns:xlink="http://www.w3.org/1999/xlink" x="0px" y="0px" viewBox="0 0 256 256" enable-background="new 0 0 256 256" xml:space="preserve">
<metadata> Svg Vector Icons : http://www.onlinewebfonts.com/icon </metadata>
<g><g><path fill="#000000" d="M245.6,96.7l-3.3,17.5c-3.8-29.3-8.5-44.6-8.5-44.6c-2.7-11.4-11-19.1-11-19.1c5,5.6,4.3,19.4,4.3,19.4C219.4,52.3,208.6,46,208.6,46C171,9.2,126.9,12.2,126.9,12.2C70.3,10.8,41.1,50,41.1,50c-6.2-5.7-5.4-14.6-5.4-14.6C21.9,50.2,24,74.7,24,74.7l-6.9,14c-3.5,4.5-6.2,23.7-6.2,23.7v2.6L10,150.8l1.5-9c8.1,50,35.1,69.8,35.1,69.8c62.7,54.4,124.1,23.3,124.1,23.3c58.7-20.8,68.8-81.4,68.8-81.4C248.4,126.4,245.6,96.7,245.6,96.7L245.6,96.7z M204.6,86.9c6.8,6.8-0.5,44.8-0.5,44.8l-8.1-8.1c2.7,48.3-11.9,50.7-11.9,50.7l3.5-19.3l-1.1,3.5c-35.8,60.2-91.7,9-91.7,9c22.8,6.8,35.5-3.3,35.5-3.3c10.8-9.8,17.1-9.5,17.1-9.5c7.3,1.1,3.5-6.8,3.5-6.8c-8.7-10.6-22.5-6.8-22.5-6.8c-22,11.1-32.8,1.9-32.8,1.9c-26-15.7-7.6-26-7.6-26c2.7-1.1,14.1,4.1,14.1,4.1c1.3-4.1-1.9-16.8-1.9-16.8L120,90.5l3.8-4.1l0.5-6l-0.8-2.7l-17.9-0.3c-10.6,1.9-13.8-9.8-13.8-9.8c1.9-13.6,16.5-22.8,16.5-22.8C79.8,46.8,76.6,59,76.6,59c-20.6-3-26.3,1.1-26.3,1.1l-9.2-9.8l4.3,3.8l4.3-2.4c28.8-30.7,76-32,76-32c42,3,52.9,13.8,52.9,13.8c-26.6-3.5-25.5,0-25.5,0c19,2.2,33.6,11.4,33.6,11.4c-13.6-0.8-23.6,3.3-23.6,3.3c47.5,11.1,53.2,49.4,53.2,49.4C209.8,82.9,204.6,86.9,204.6,86.9L204.6,86.9z"/></g></g>
</svg>