<?xml version="1.0" encoding="UTF-8" standalone="no"?>
<!-- Svg Vector Icons : http://www.onlinewebfonts.com/icon -->

<svg
   version="1.1"
   x="0px"
   y="0px"
   viewBox="0 0 256 256"
   enable-background="new 0 0 256 256"
   xml:space="preserve"
   id="svg2"
   sodipodi:docname="32.svg"
   inkscape:version="1.3 (0e150ed6c4, 2023-07-21)"
   xmlns:inkscape="http://www.inkscape.org/namespaces/inkscape"
   xmlns:sodipodi="http://sodipodi.sourceforge.net/DTD/sodipodi-0.dtd"
   xmlns="http://www.w3.org/2000/svg"
   xmlns:svg="http://www.w3.org/2000/svg"><defs
   id="defs2" /><sodipodi:namedview
   id="namedview2"
   pagecolor="#ffffff"
   bordercolor="#000000"
   borderopacity="0.25"
   inkscape:showpageshadow="2"
   inkscape:pageopacity="0.0"
   inkscape:pagecheckerboard="0"
   inkscape:deskcolor="#d1d1d1"
   inkscape:zoom="0.40810557"
   inkscape:cx="412.88336"
   inkscape:cy="574.60622"
   inkscape:window-width="1440"
   inkscape:window-height="829"
   inkscape:window-x="-8"
   inkscape:window-y="-8"
   inkscape:window-maximized="1"
   inkscape:current-layer="layer1" />&#10;<metadata
   id="metadata1"> Svg Vector Icons : http://www.onlinewebfonts.com/icon </metadata>&#10;&#10;<g
   inkscape:groupmode="layer"
   id="layer1"
   inkscape:label="arch"><path
     style="font-weight:800;font-size:112.494px;font-family:Metropolis;-inkscape-font-specification:'Metropolis Ultra-Bold';fill:#ffffff;stroke:#000000;stroke-width:3;stroke-linecap:square"
     d="m 151.13133,251.99604 q -10.34945,0 -18.56152,-3.48732 -8.09956,-3.48731 -13.49928,-9.44949 l 11.02442,-12.71183 q 4.16227,4.16228 9.337,6.29967 5.17472,2.13738 10.68693,2.13738 5.73719,0 8.88703,-2.13738 3.14983,-2.13739 3.14983,-5.6247 0,-3.7123 -3.14983,-5.51221 -3.14984,-1.7999 -10.34945,-1.7999 l -9.11202,0.11249 v -16.19913 h 9.11202 q 5.73719,0.11249 8.77453,-1.68741 3.14983,-1.9124 3.14983,-5.28722 0,-3.48732 -3.14983,-5.51221 -3.14983,-2.02489 -8.43705,-2.02489 -9.11201,0 -17.54907,8.21206 l -10.79942,-11.69937 q 11.69938,-13.72427 30.37338,-13.72427 8.88703,0 15.52417,2.69985 6.63715,2.69986 10.12446,7.5371 3.48732,4.83724 3.48732,10.91192 0,6.41216 -3.93729,11.13691 -3.8248,4.61225 -10.34945,6.52465 6.86213,1.68741 11.36189,6.29966 4.61226,4.61226 4.61226,11.69938 0,6.74964 -3.8248,12.03686 -3.7123,5.28721 -10.68693,8.32455 -6.97463,2.92485 -16.19913,2.92485 z m 39.14785,-17.09909 28.57348,-21.37386 q 6.29966,-4.72475 8.66204,-8.21206 2.47487,-3.59981 2.47487,-7.31211 0,-3.8248 -3.03734,-6.18717 -2.92485,-2.47487 -7.19962,-2.47487 -5.17472,0 -9.56199,2.36237 -4.27477,2.36238 -8.88702,7.31211 L 189.26674,187.087 q 12.59933,-15.18669 30.93585,-15.18669 8.54954,0 15.18669,3.26232 6.74964,3.26233 10.46194,8.99952 3.8248,5.7372 3.8248,13.04931 0,7.98707 -4.04979,14.39923 -3.93729,6.29966 -13.72426,13.0493 l -12.14936,8.66204 h 30.71087 v 17.21159 h -60.1843 z"
     id="text2"
     aria-label="32" /></g></svg>
