<?xml version="1.0" encoding="UTF-8" standalone="no"?>
<!-- Svg Vector Icons : http://www.onlinewebfonts.com/icon -->

<svg
   version="1.1"
   x="0px"
   y="0px"
   viewBox="0 0 256 256"
   enable-background="new 0 0 256 256"
   xml:space="preserve"
   id="svg2"
   sodipodi:docname="64.svg"
   inkscape:version="1.3 (0e150ed6c4, 2023-07-21)"
   xmlns:inkscape="http://www.inkscape.org/namespaces/inkscape"
   xmlns:sodipodi="http://sodipodi.sourceforge.net/DTD/sodipodi-0.dtd"
   xmlns="http://www.w3.org/2000/svg"
   xmlns:svg="http://www.w3.org/2000/svg"><defs
   id="defs2" /><sodipodi:namedview
   id="namedview2"
   pagecolor="#ffffff"
   bordercolor="#000000"
   borderopacity="0.25"
   inkscape:showpageshadow="2"
   inkscape:pageopacity="0.0"
   inkscape:pagecheckerboard="0"
   inkscape:deskcolor="#d1d1d1"
   inkscape:zoom="1.6324223"
   inkscape:cx="106.89636"
   inkscape:cy="269.2318"
   inkscape:window-width="1440"
   inkscape:window-height="829"
   inkscape:window-x="-8"
   inkscape:window-y="-8"
   inkscape:window-maximized="1"
   inkscape:current-layer="layer1" />&#10;<metadata
   id="metadata1"> Svg Vector Icons : http://www.onlinewebfonts.com/icon </metadata>&#10;&#10;<g
   inkscape:groupmode="layer"
   id="layer1"
   inkscape:label="arch"><path
     style="font-weight:800;font-size:112.494px;font-family:Metropolis;-inkscape-font-specification:'Metropolis Ultra-Bold';fill:#ffffff;stroke:#000000;stroke-width:3;stroke-linecap:square"
     d="m 151.1184,200.02381 q 7.19962,0 13.1618,3.03734 5.96218,3.03733 9.44949,8.66203 3.48732,5.51221 3.48732,13.04931 0,7.98707 -4.04979,14.17424 -3.93729,6.18717 -10.91191,9.56199 -6.86214,3.37482 -15.41168,3.37482 -16.76161,0 -25.42365,-10.46194 -8.54954,-10.46194 -8.54954,-28.1235 0,-12.14935 4.49976,-21.48635 4.49976,-9.4495 12.82432,-14.62423 8.43705,-5.28721 19.57395,-5.28721 13.83676,0 24.29871,8.09957 l -8.88703,14.51172 q -3.7123,-2.92484 -7.31211,-4.38726 -3.59981,-1.46243 -7.98707,-1.46243 -6.74964,0 -11.13691,4.61226 -4.27477,4.49976 -5.51221,12.82431 3.48732,-2.81235 8.21207,-4.38726 4.72474,-1.68741 9.67448,-1.68741 z m -5.39971,35.5481 q 5.28722,0 8.54954,-2.81235 3.26233,-2.92484 3.26233,-7.19961 0,-4.61226 -3.59981,-7.31211 -3.48731,-2.81235 -8.66204,-2.81235 -4.04978,0 -7.19961,2.02489 -3.14984,1.9124 -4.83725,5.39971 0.89996,6.63715 3.8248,9.67448 2.92484,3.03734 8.66204,3.03734 z m 77.39589,0.22499 h -37.4605 l -1.68741,-14.62422 34.98563,-47.80995 h 23.39876 v 46.46002 h 9.78698 v 15.97415 h -9.78698 v 14.73672 h -19.23648 z m 0,-15.97415 v -26.54858 l -19.23647,26.54858 z"
     id="text2"
     aria-label="64" /></g></svg>
