<?xml version="1.0" encoding="UTF-8" standalone="no"?>
<!-- Svg Vector Icons : http://www.onlinewebfonts.com/icon -->

<svg
   version="1.1"
   x="0px"
   y="0px"
   viewBox="0 0 256 256"
   enable-background="new 0 0 256 256"
   xml:space="preserve"
   id="svg2"
   sodipodi:docname="a64.svg"
   inkscape:version="1.3 (0e150ed6c4, 2023-07-21)"
   xmlns:inkscape="http://www.inkscape.org/namespaces/inkscape"
   xmlns:sodipodi="http://sodipodi.sourceforge.net/DTD/sodipodi-0.dtd"
   xmlns:xlink="http://www.w3.org/1999/xlink"
   xmlns="http://www.w3.org/2000/svg"
   xmlns:svg="http://www.w3.org/2000/svg"><defs
   id="defs2"><linearGradient
     id="linearGradient20"
     inkscape:collect="always"><stop
       style="stop-color:#bbb145;stop-opacity:1;"
       offset="0"
       id="stop20" /><stop
       style="stop-color:#8ee924;stop-opacity:1;"
       offset="0.40536278"
       id="stop22" /><stop
       style="stop-color:#c52b2b;stop-opacity:1;"
       offset="0.74369085"
       id="stop23" /><stop
       style="stop-color:#ed2dff;stop-opacity:1;"
       offset="1"
       id="stop21" /></linearGradient><linearGradient
     id="linearGradient18"
     inkscape:collect="always"><stop
       style="stop-color:#be5252;stop-opacity:1;"
       offset="0"
       id="stop18" /><stop
       style="stop-color:#0053fb;stop-opacity:1;"
       offset="1"
       id="stop19" /></linearGradient><linearGradient
     inkscape:collect="always"
     xlink:href="#linearGradient18"
     id="linearGradient19"
     x1="6.276947"
     y1="211.89192"
     x2="251.62672"
     y2="211.89192"
     gradientUnits="userSpaceOnUse" /><linearGradient
     inkscape:collect="always"
     xlink:href="#linearGradient20"
     id="linearGradient21"
     x1="4.976947"
     y1="211.89192"
     x2="252.92672"
     y2="211.89192"
     gradientUnits="userSpaceOnUse" /></defs><sodipodi:namedview
   id="namedview2"
   pagecolor="#ffffff"
   bordercolor="#000000"
   borderopacity="0.25"
   inkscape:showpageshadow="2"
   inkscape:pageopacity="0.0"
   inkscape:pagecheckerboard="0"
   inkscape:deskcolor="#d1d1d1"
   inkscape:zoom="1.6324223"
   inkscape:cx="106.89636"
   inkscape:cy="220.22488"
   inkscape:window-width="1440"
   inkscape:window-height="829"
   inkscape:window-x="-8"
   inkscape:window-y="-8"
   inkscape:window-maximized="1"
   inkscape:current-layer="text2" />&#10;<metadata
   id="metadata1"> Svg Vector Icons : http://www.onlinewebfonts.com/icon </metadata>&#10;&#10;<g
   inkscape:groupmode="layer"
   id="layer1"
   inkscape:label="arch"><g
     id="text2"
     style="font-size:112.494px;font-family:Arial;-inkscape-font-specification:Arial;stroke-width:2.6;stroke-linecap:square;stroke:url(#linearGradient19);fill:url(#linearGradient21)"
     aria-label="arm64"><path
       style="font-size:53.3333px;text-align:end;text-anchor:end;stroke:url(#linearGradient19);fill:url(#linearGradient21)"
       d="m 20.676938,222.3203 q 3.573332,0 6.399997,1.44 2.826665,1.44 4.426664,4.16 1.599999,2.66666 1.599999,6.23999 v 16.37333 H 24.41027 v -2.34667 q -1.44,1.44 -3.466665,2.24 -2.026666,0.74666 -4.159998,0.74666 -2.933331,0 -5.33333,-1.11999 -2.3999983,-1.12 -3.7866642,-3.09334 -1.3866658,-2.02666 -1.3866658,-4.58666 0,-2.61333 1.5466658,-4.69333 1.5466657,-2.13333 4.2133312,-3.30667 2.666665,-1.17333 5.919996,-1.17333 3.146665,0 6.45333,1.33333 v -0.37333 q 0,-2.24 -1.653333,-3.62666 -1.599999,-1.44 -4.373331,-1.44 -1.813332,0 -3.413331,0.53333 -1.546666,0.48 -3.519998,1.49333 L 8.6236123,225.46696 Q 14.916942,222.3203 20.676938,222.3203 Z m -1.706665,23.30665 q 2.079999,0 3.626664,-0.90666 1.546666,-0.90667 1.813333,-2.45334 v -2.93333 q -2.346666,-0.90666 -5.173331,-0.90666 -1.866665,0 -3.146665,1.06666 -1.226665,1.01333 -1.226665,2.61333 0,1.6 1.119999,2.56 1.173333,0.96 2.986665,0.96 z M 47.98357,228.0803 q 1.386666,-2.72 3.733331,-4.21334 2.346665,-1.54666 5.33333,-1.54666 v 7.51999 q -4.159997,0 -6.613329,2.24 -2.399999,2.24 -2.399999,6.02667 l -0.05333,-0.10667 v 12.53333 H 38.970242 V 222.9603 h 9.013328 z m 46.986616,-5.76 q 2.879998,0 5.226664,1.38666 2.34666,1.33334 3.73333,3.78667 1.38667,2.45333 1.38667,5.49333 v 17.59999 h -8.639999 v -15.99999 q 0,-2.08 -1.226666,-3.41333 -1.226666,-1.33334 -3.146665,-1.33334 -2.026665,0 -3.359998,1.28 -1.279999,1.22667 -1.279999,3.09333 v 16.37333 h -8.639995 v -15.99999 q 0,-2.08 -1.226666,-3.41333 -1.226665,-1.33334 -3.146664,-1.33334 -2.026666,0 -3.359998,1.28 -1.28,1.22667 -1.28,3.09333 v 16.32 H 60.996872 V 222.9603 H 70.0102 v 3.57333 q 1.013333,-1.97333 2.933332,-3.09333 1.919999,-1.12 4.426664,-1.12 2.719998,0 5.01333,1.28 2.293332,1.22666 3.679998,3.46666 1.12,-2.18666 3.466665,-3.46666 2.399998,-1.28 5.439997,-1.28 z"
       id="path17" /><path
       style="font-weight:800;font-family:Metropolis;-inkscape-font-specification:'Metropolis Ultra-Bold';stroke:url(#linearGradient19);fill:url(#linearGradient21)"
       d="m 150.60708,200.02381 q 7.19961,0 13.1618,3.03734 5.96218,3.03733 9.44949,8.66203 3.48732,5.51221 3.48732,13.04931 0,7.98707 -4.04979,14.17424 -3.93729,6.18717 -10.91192,9.56199 -6.86213,3.37482 -15.41168,3.37482 -16.7616,0 -25.42364,-10.46194 -8.54954,-10.46194 -8.54954,-28.1235 0,-12.14935 4.49976,-21.48635 4.49976,-9.4495 12.82431,-14.62423 8.43705,-5.28721 19.57396,-5.28721 13.83676,0 24.2987,8.09957 l -8.88702,14.51172 q -3.7123,-2.92484 -7.31211,-4.38726 -3.59981,-1.46243 -7.98708,-1.46243 -6.74964,0 -11.1369,4.61226 -4.27478,4.49976 -5.51221,12.82431 3.48731,-2.81235 8.21206,-4.38726 4.72475,-1.68741 9.67449,-1.68741 z m -5.39972,35.5481 q 5.28722,0 8.54955,-2.81235 3.26233,-2.92484 3.26233,-7.19961 0,-4.61226 -3.59981,-7.31211 -3.48732,-2.81235 -8.66204,-2.81235 -4.04979,0 -7.19962,2.02489 -3.14983,1.9124 -4.83724,5.39971 0.89995,6.63715 3.8248,9.67448 2.92484,3.03734 8.66203,3.03734 z m 77.39591,0.22499 h -37.46051 l -1.68741,-14.62422 34.98564,-47.80995 h 23.39875 v 46.46002 h 9.78698 v 15.97415 h -9.78698 v 14.73672 h -19.23647 z m 0,-15.97415 v -26.54858 l -19.23648,26.54858 z"
       id="path18" /></g></g></svg>
